<mxfile host="app.diagrams.net" modified="2024-02-26T19:03:32.524Z" agent="Mozilla/5.0 (Windows NT 10.0; Win64; x64) AppleWebKit/537.36 (KHTML, like Gecko) Chrome/121.0.0.0 Safari/537.36" etag="HN39uNC0ekNBMsF4t8K2" version="23.1.6" type="github">
  <diagram name="Page-1" id="OrNzXTKZ-mzPi865FBal">
    <mxGraphModel dx="926" dy="493" grid="1" gridSize="10" guides="1" tooltips="1" connect="1" arrows="1" fold="1" page="1" pageScale="1" pageWidth="850" pageHeight="1100" math="0" shadow="0">
      <root>
        <mxCell id="0" />
        <mxCell id="1" parent="0" />
        <mxCell id="19PIO_kjta1GH01GDTam-55" value="" style="rounded=0;whiteSpace=wrap;html=1;" vertex="1" parent="1">
          <mxGeometry x="560" y="310" width="220" height="100" as="geometry" />
        </mxCell>
        <mxCell id="19PIO_kjta1GH01GDTam-1" value="" style="rounded=1;whiteSpace=wrap;html=1;" vertex="1" parent="1">
          <mxGeometry x="280" y="40" width="400" height="220" as="geometry" />
        </mxCell>
        <mxCell id="19PIO_kjta1GH01GDTam-13" style="edgeStyle=orthogonalEdgeStyle;rounded=1;orthogonalLoop=1;jettySize=auto;html=1;exitX=1;exitY=0.5;exitDx=0;exitDy=0;entryX=0;entryY=0.5;entryDx=0;entryDy=0;strokeColor=default;curved=0;strokeWidth=2;dashed=1;" edge="1" parent="1" source="19PIO_kjta1GH01GDTam-3" target="19PIO_kjta1GH01GDTam-6">
          <mxGeometry relative="1" as="geometry" />
        </mxCell>
        <mxCell id="19PIO_kjta1GH01GDTam-14" style="edgeStyle=orthogonalEdgeStyle;rounded=1;orthogonalLoop=1;jettySize=auto;html=1;exitX=1;exitY=0.5;exitDx=0;exitDy=0;entryX=0;entryY=0.5;entryDx=0;entryDy=0;strokeColor=default;curved=0;strokeWidth=2;dashed=1;" edge="1" parent="1" source="19PIO_kjta1GH01GDTam-3" target="19PIO_kjta1GH01GDTam-9">
          <mxGeometry relative="1" as="geometry" />
        </mxCell>
        <mxCell id="19PIO_kjta1GH01GDTam-17" value="" style="edgeStyle=orthogonalEdgeStyle;rounded=1;orthogonalLoop=1;jettySize=auto;html=1;strokeColor=default;curved=0;strokeWidth=2;dashed=1;" edge="1" parent="1" source="19PIO_kjta1GH01GDTam-3" target="19PIO_kjta1GH01GDTam-10">
          <mxGeometry relative="1" as="geometry" />
        </mxCell>
        <mxCell id="19PIO_kjta1GH01GDTam-3" value="&lt;font style=&quot;font-size: 19px;&quot;&gt;FrontEnd&lt;/font&gt;" style="rounded=1;whiteSpace=wrap;html=1;shadow=1;" vertex="1" parent="1">
          <mxGeometry x="40" y="120" width="160" height="80" as="geometry" />
        </mxCell>
        <mxCell id="19PIO_kjta1GH01GDTam-4" value="Payaq" style="text;html=1;align=center;verticalAlign=middle;whiteSpace=wrap;rounded=0;fontSize=18;" vertex="1" parent="1">
          <mxGeometry x="350" y="40" width="60" height="30" as="geometry" />
        </mxCell>
        <mxCell id="19PIO_kjta1GH01GDTam-5" value="" style="rounded=1;whiteSpace=wrap;html=1;" vertex="1" parent="1">
          <mxGeometry x="760" y="40" width="340" height="220" as="geometry" />
        </mxCell>
        <mxCell id="19PIO_kjta1GH01GDTam-27" style="edgeStyle=orthogonalEdgeStyle;rounded=1;orthogonalLoop=1;jettySize=auto;html=1;exitX=1;exitY=0.25;exitDx=0;exitDy=0;entryX=0;entryY=0.25;entryDx=0;entryDy=0;strokeWidth=2;fillColor=#f8cecc;strokeColor=#b85450;dashed=1;dashPattern=1 1;curved=0;" edge="1" parent="1" source="19PIO_kjta1GH01GDTam-6" target="19PIO_kjta1GH01GDTam-21">
          <mxGeometry relative="1" as="geometry" />
        </mxCell>
        <mxCell id="19PIO_kjta1GH01GDTam-6" value="&lt;font style=&quot;font-size: 14px;&quot;&gt;/create&lt;/font&gt;" style="rounded=0;whiteSpace=wrap;html=1;" vertex="1" parent="1">
          <mxGeometry x="310" y="85" width="140" height="20" as="geometry" />
        </mxCell>
        <mxCell id="19PIO_kjta1GH01GDTam-7" value="Serviço Generico" style="text;html=1;align=center;verticalAlign=middle;whiteSpace=wrap;rounded=0;" vertex="1" parent="1">
          <mxGeometry x="840" y="40" width="140" height="30" as="geometry" />
        </mxCell>
        <mxCell id="19PIO_kjta1GH01GDTam-8" value="Inter" style="text;html=1;align=center;verticalAlign=middle;whiteSpace=wrap;rounded=0;fontSize=18;" vertex="1" parent="1">
          <mxGeometry x="770" y="40" width="140" height="30" as="geometry" />
        </mxCell>
        <mxCell id="19PIO_kjta1GH01GDTam-9" value="&lt;font style=&quot;font-size: 14px;&quot;&gt;/cancel/{id}&lt;/font&gt;" style="rounded=0;whiteSpace=wrap;html=1;" vertex="1" parent="1">
          <mxGeometry x="310" y="128" width="140" height="20" as="geometry" />
        </mxCell>
        <mxCell id="19PIO_kjta1GH01GDTam-10" value="&lt;font style=&quot;font-size: 14px;&quot;&gt;/request&lt;/font&gt;" style="rounded=0;whiteSpace=wrap;html=1;" vertex="1" parent="1">
          <mxGeometry x="310" y="172" width="140" height="20" as="geometry" />
        </mxCell>
        <mxCell id="19PIO_kjta1GH01GDTam-18" value="" style="rounded=0;whiteSpace=wrap;html=1;" vertex="1" parent="1">
          <mxGeometry x="320" y="300" width="120" height="130" as="geometry" />
        </mxCell>
        <mxCell id="19PIO_kjta1GH01GDTam-19" value="Iboltpag" style="text;html=1;align=center;verticalAlign=middle;resizable=0;points=[];autosize=1;strokeColor=none;fillColor=none;" vertex="1" parent="1">
          <mxGeometry x="345" y="400" width="70" height="30" as="geometry" />
        </mxCell>
        <mxCell id="19PIO_kjta1GH01GDTam-20" style="edgeStyle=orthogonalEdgeStyle;rounded=0;orthogonalLoop=1;jettySize=auto;html=1;exitX=0.5;exitY=1;exitDx=0;exitDy=0;entryX=0.5;entryY=0;entryDx=0;entryDy=0;strokeWidth=2;entryPerimeter=0;endArrow=oval;endFill=1;startArrow=oval;startFill=1;" edge="1" parent="1" source="19PIO_kjta1GH01GDTam-11" target="19PIO_kjta1GH01GDTam-2">
          <mxGeometry relative="1" as="geometry">
            <Array as="points">
              <mxPoint x="380" y="300" />
              <mxPoint x="380" y="300" />
            </Array>
          </mxGeometry>
        </mxCell>
        <mxCell id="19PIO_kjta1GH01GDTam-11" value="&lt;font style=&quot;font-size: 14px;&quot;&gt;Insert DB&lt;/font&gt;" style="rounded=0;whiteSpace=wrap;html=1;" vertex="1" parent="1">
          <mxGeometry x="310" y="215" width="140" height="20" as="geometry" />
        </mxCell>
        <mxCell id="19PIO_kjta1GH01GDTam-32" style="edgeStyle=orthogonalEdgeStyle;rounded=1;orthogonalLoop=1;jettySize=auto;html=1;entryX=0;entryY=0.25;entryDx=0;entryDy=0;strokeWidth=2;fillColor=#f8cecc;strokeColor=#b85450;dashed=1;dashPattern=1 1;curved=0;" edge="1" parent="1" target="19PIO_kjta1GH01GDTam-28">
          <mxGeometry relative="1" as="geometry">
            <mxPoint x="620" y="90" as="sourcePoint" />
            <Array as="points">
              <mxPoint x="620" y="90" />
            </Array>
          </mxGeometry>
        </mxCell>
        <mxCell id="19PIO_kjta1GH01GDTam-38" style="edgeStyle=orthogonalEdgeStyle;rounded=1;orthogonalLoop=1;jettySize=auto;html=1;exitX=0.25;exitY=1;exitDx=0;exitDy=0;entryX=1;entryY=0.25;entryDx=0;entryDy=0;strokeWidth=2;fillColor=#f8cecc;strokeColor=#b85450;dashed=1;dashPattern=1 1;curved=0;" edge="1" parent="1" source="19PIO_kjta1GH01GDTam-21" target="19PIO_kjta1GH01GDTam-11">
          <mxGeometry relative="1" as="geometry" />
        </mxCell>
        <mxCell id="19PIO_kjta1GH01GDTam-41" style="edgeStyle=orthogonalEdgeStyle;rounded=1;orthogonalLoop=1;jettySize=auto;html=1;exitX=0.75;exitY=1;exitDx=0;exitDy=0;entryX=1;entryY=0.75;entryDx=0;entryDy=0;strokeWidth=2;dashed=1;fillColor=#d5e8d4;strokeColor=#82b366;curved=0;" edge="1" parent="1" source="19PIO_kjta1GH01GDTam-21" target="19PIO_kjta1GH01GDTam-11">
          <mxGeometry relative="1" as="geometry" />
        </mxCell>
        <mxCell id="19PIO_kjta1GH01GDTam-42" style="edgeStyle=orthogonalEdgeStyle;rounded=1;orthogonalLoop=1;jettySize=auto;html=1;exitX=0;exitY=0.75;exitDx=0;exitDy=0;entryX=1;entryY=0.75;entryDx=0;entryDy=0;strokeWidth=2;dashed=1;fillColor=#d5e8d4;strokeColor=#82b366;curved=0;" edge="1" parent="1" source="19PIO_kjta1GH01GDTam-21" target="19PIO_kjta1GH01GDTam-6">
          <mxGeometry relative="1" as="geometry" />
        </mxCell>
        <mxCell id="19PIO_kjta1GH01GDTam-21" value="" style="rounded=0;whiteSpace=wrap;html=1;movable=1;resizable=1;rotatable=1;deletable=1;editable=1;locked=0;connectable=1;container=0;" vertex="1" parent="1">
          <mxGeometry x="490" y="60" width="130" height="70" as="geometry" />
        </mxCell>
        <mxCell id="19PIO_kjta1GH01GDTam-22" value="&lt;div style=&quot;background-color: rgb(255, 255, 255); color: rgb(8, 8, 8); font-family: &amp;quot;JetBrains Mono&amp;quot;, monospace; font-size: 13px;&quot;&gt;create boleto&lt;/div&gt;" style="text;html=1;align=center;verticalAlign=middle;resizable=1;points=[];autosize=1;strokeColor=none;fillColor=none;fontSize=13;fontStyle=1;movable=1;rotatable=1;deletable=1;editable=1;locked=0;connectable=1;container=0;" vertex="1" parent="1">
          <mxGeometry x="495" y="55" width="120" height="30" as="geometry" />
        </mxCell>
        <mxCell id="19PIO_kjta1GH01GDTam-23" value="&lt;div style=&quot;text-align: justify;&quot;&gt;&lt;span style=&quot;font-size: 10px; background-color: initial;&quot;&gt;Como listado na documentação do fluxo de criação do boleto&lt;/span&gt;&lt;/div&gt;" style="text;html=1;align=center;verticalAlign=middle;whiteSpace=wrap;rounded=0;movable=1;resizable=1;rotatable=1;deletable=1;editable=1;locked=0;connectable=1;container=0;" vertex="1" parent="1">
          <mxGeometry x="500" y="85" width="110" height="32" as="geometry" />
        </mxCell>
        <mxCell id="19PIO_kjta1GH01GDTam-2" value="&lt;font style=&quot;font-size: 15px;&quot;&gt;DB&lt;/font&gt;" style="shape=cylinder3;whiteSpace=wrap;html=1;boundedLbl=1;backgroundOutline=1;size=15;" vertex="1" parent="1">
          <mxGeometry x="350" y="320" width="60" height="80" as="geometry" />
        </mxCell>
        <mxCell id="19PIO_kjta1GH01GDTam-36" style="edgeStyle=orthogonalEdgeStyle;rounded=1;orthogonalLoop=1;jettySize=auto;html=1;exitX=1;exitY=0.25;exitDx=0;exitDy=0;entryX=0;entryY=0;entryDx=0;entryDy=0;strokeWidth=2;fillColor=#f8cecc;strokeColor=#b85450;dashed=1;dashPattern=1 1;curved=0;" edge="1" parent="1" source="19PIO_kjta1GH01GDTam-28" target="19PIO_kjta1GH01GDTam-31">
          <mxGeometry relative="1" as="geometry">
            <Array as="points">
              <mxPoint x="940" y="90" />
              <mxPoint x="940" y="117" />
              <mxPoint x="987" y="117" />
            </Array>
          </mxGeometry>
        </mxCell>
        <mxCell id="19PIO_kjta1GH01GDTam-28" value="&lt;font style=&quot;font-size: 14px;&quot;&gt;/create_from_sdk&lt;/font&gt;" style="rounded=0;whiteSpace=wrap;html=1;" vertex="1" parent="1">
          <mxGeometry x="770" y="85" width="140" height="20" as="geometry" />
        </mxCell>
        <mxCell id="19PIO_kjta1GH01GDTam-29" value="&lt;font style=&quot;font-size: 14px;&quot;&gt;/cancel_from_sdk&lt;/font&gt;" style="rounded=0;whiteSpace=wrap;html=1;" vertex="1" parent="1">
          <mxGeometry x="770" y="128" width="140" height="20" as="geometry" />
        </mxCell>
        <mxCell id="19PIO_kjta1GH01GDTam-30" value="&lt;font style=&quot;font-size: 14px;&quot;&gt;/request_from_sdk&lt;/font&gt;" style="rounded=0;whiteSpace=wrap;html=1;" vertex="1" parent="1">
          <mxGeometry x="770" y="172" width="140" height="20" as="geometry" />
        </mxCell>
        <mxCell id="19PIO_kjta1GH01GDTam-39" style="edgeStyle=orthogonalEdgeStyle;rounded=1;orthogonalLoop=1;jettySize=auto;html=1;exitX=0;exitY=0.75;exitDx=0;exitDy=0;entryX=1;entryY=0.75;entryDx=0;entryDy=0;dashed=1;strokeWidth=2;fillColor=#d5e8d4;strokeColor=#82b366;curved=0;" edge="1" parent="1" source="19PIO_kjta1GH01GDTam-31" target="19PIO_kjta1GH01GDTam-28">
          <mxGeometry relative="1" as="geometry">
            <Array as="points">
              <mxPoint x="930" y="152" />
              <mxPoint x="930" y="100" />
            </Array>
          </mxGeometry>
        </mxCell>
        <mxCell id="19PIO_kjta1GH01GDTam-31" value="&lt;b&gt;INTER&lt;/b&gt;" style="shape=parallelogram;perimeter=parallelogramPerimeter;whiteSpace=wrap;html=1;fixedSize=1;" vertex="1" parent="1">
          <mxGeometry x="970" y="108" width="120" height="60" as="geometry" />
        </mxCell>
        <mxCell id="19PIO_kjta1GH01GDTam-40" style="edgeStyle=orthogonalEdgeStyle;rounded=1;orthogonalLoop=1;jettySize=auto;html=1;exitX=0;exitY=0.75;exitDx=0;exitDy=0;entryX=1;entryY=0.571;entryDx=0;entryDy=0;entryPerimeter=0;strokeWidth=2;dashed=1;fillColor=#d5e8d4;strokeColor=#82b366;curved=0;" edge="1" parent="1" source="19PIO_kjta1GH01GDTam-28" target="19PIO_kjta1GH01GDTam-21">
          <mxGeometry relative="1" as="geometry" />
        </mxCell>
        <mxCell id="19PIO_kjta1GH01GDTam-33" value="" style="ellipse;whiteSpace=wrap;html=1;aspect=fixed;" vertex="1" parent="1">
          <mxGeometry x="690" y="72.5" width="45" height="45" as="geometry" />
        </mxCell>
        <mxCell id="19PIO_kjta1GH01GDTam-35" value="" style="verticalLabelPosition=bottom;aspect=fixed;html=1;shape=mxgraph.salesforce.inbox2;" vertex="1" parent="1">
          <mxGeometry x="692.5" y="75" width="40" height="40" as="geometry" />
        </mxCell>
        <mxCell id="19PIO_kjta1GH01GDTam-44" value="" style="endArrow=classic;html=1;rounded=0;dashed=1;strokeWidth=2;fillColor=#f8cecc;strokeColor=#b85450;dashPattern=1 1;" edge="1" parent="1">
          <mxGeometry width="50" height="50" relative="1" as="geometry">
            <mxPoint x="580" y="329.82" as="sourcePoint" />
            <mxPoint x="640" y="329.82" as="targetPoint" />
          </mxGeometry>
        </mxCell>
        <mxCell id="19PIO_kjta1GH01GDTam-45" value="" style="endArrow=classic;html=1;rounded=0;fillColor=#d5e8d4;strokeColor=#82b366;dashed=1;strokeWidth=2;" edge="1" parent="1">
          <mxGeometry width="50" height="50" relative="1" as="geometry">
            <mxPoint x="580" y="359.7" as="sourcePoint" />
            <mxPoint x="640" y="359.7" as="targetPoint" />
          </mxGeometry>
        </mxCell>
        <mxCell id="19PIO_kjta1GH01GDTam-49" value="Requisição recebida" style="text;html=1;align=center;verticalAlign=middle;whiteSpace=wrap;rounded=0;" vertex="1" parent="1">
          <mxGeometry x="640" y="320" width="120" height="20" as="geometry" />
        </mxCell>
        <mxCell id="19PIO_kjta1GH01GDTam-50" value="Requisição enviada&amp;nbsp;" style="text;html=1;align=center;verticalAlign=middle;whiteSpace=wrap;rounded=0;" vertex="1" parent="1">
          <mxGeometry x="640" y="350" width="120" height="20" as="geometry" />
        </mxCell>
        <mxCell id="19PIO_kjta1GH01GDTam-53" value="" style="verticalLabelPosition=bottom;aspect=fixed;html=1;shape=mxgraph.salesforce.inbox2;" vertex="1" parent="1">
          <mxGeometry x="595" y="377.5" width="25" height="25" as="geometry" />
        </mxCell>
        <mxCell id="19PIO_kjta1GH01GDTam-54" value="Objeto do Boleto&amp;nbsp; &amp;nbsp; &amp;nbsp;" style="text;html=1;align=center;verticalAlign=middle;whiteSpace=wrap;rounded=0;" vertex="1" parent="1">
          <mxGeometry x="640" y="380" width="120" height="20" as="geometry" />
        </mxCell>
      </root>
    </mxGraphModel>
  </diagram>
</mxfile>
